<?xml version="1.0" encoding="utf-8"?>
<!-- Generator: Adobe Illustrator 21.0.0, SVG Export Plug-In . SVG Version: 6.00 Build 0)  -->
<svg version="1.1" id="Calque_1" xmlns="http://www.w3.org/2000/svg" xmlns:xlink="http://www.w3.org/1999/xlink" x="0px" y="0px"
	 viewBox="0 0 250 50" style="enable-background:new 0 0 250 50;" xml:space="preserve">
<style type="text/css">
	.st0{fill:#333366;}
	.st1{fill:#999999;}
	.st2{font-family:'Roboto-Thin';}
	.st3{font-size:40px;}
	.st4{font-size:25px;}
</style>
<path class="st0" d="M41.7,18.8c2.6-3.2,5.4-6.2,9-8.3c0.2-0.1,0.5-0.2,0.9-0.3c-0.5,1-0.9,1.8-1.3,2.7c0.6-0.1,1.1-0.3,1.7-0.4
	c3-0.4,5.7,0.3,8.3,1.8c1.8,1,3.3,2.4,4.7,3.8c1.8,1.8,3.6,3.5,5.4,5.2c0.7,0.6,1.5,1.2,2.2,1.8c-2.4,0.3-4.8,0.7-7.2,1
	c0,0,0,0.1,0,0.1c1.5,0.6,3,1.3,4.6,2c-0.8,0.2-1.6,0.3-2.3,0.5c-1.9,0.5-3.7,1.2-5.4,2.2c-1.8,1.1-3.8,1.9-5.9,2
	c-0.1,0-0.3,0-0.4,0c-0.1,0-0.2,0-0.4,0c0.3,0.7,0.6,1.4,0.9,2.1c-2.8-0.7-5.5-1.3-8.4-1.4c0.5-1.4,1-2.8,2.3-3.8c-1,0-1.8,0-2.7,0
	c0.1-0.7,0.3-1.2,0.3-1.8c0-0.5,0-1-0.1-1.5c0-0.2-0.3-0.6-0.6-0.6c-2.1-0.2-3.2-1.6-4.2-3.2c-0.2-0.3-0.4-0.6-0.6-1
	c-0.9,0.7-1.7,1.4-2.5,2.1c-0.8,0.8-1.4,1.6-2.1,2.5c-0.1-0.3-0.1-0.4-0.2-0.6c-0.3-0.6-0.6-1.2-1-1.8c-0.2-0.3-0.7-0.4-1.1-0.4
	c-0.5-0.1-1.1-0.2-1.7-0.3c-0.2,0-0.4,0.1-0.5,0.2c-0.3,0.6-0.6,1.3-0.9,1.9c-0.2,0.7-0.4,1.4-0.6,2c-0.4,1.4-1,2.6-2.2,3.6
	c0.8-0.1,1.5-0.2,2.2-0.3c-1.2,2.6-3.6,3.4-6,3.9c0,0-0.1-0.1-0.1-0.1c0.4-0.3,0.8-0.7,1.4-1.1c-2.8-1.1-5-2.7-6.6-5.1
	c1.2-1.3,2.6-2.3,4.2-3.1c-0.8-0.3-1.9,0-3.2,0.9c0.2-0.4,0.4-0.8,0.7-1.1c0.3-0.4,0.7-0.8,1.2-1.1c1.3-0.8,2.1-1.9,2.7-3.2
	c0.3-0.6,0.5-1.2,0.8-1.8c0.3-0.8,0.5-1.6,0.5-2.4c0-1.6,0.7-2.4,2.3-2.6c2.2-0.3,4.4,0.7,5.6,2.6c0.4,0.6,0.8,1.2,1.3,1.6
	c0.6,0.6,1.2,0.4,1.4-0.4c0.1-0.7,0.1-1.5,0.1-2.2c0-1.1-0.1-2.2,0-3.3c0-0.7,0.4-1.4,1-2c0,0.3,0.1,0.6,0.1,1
	c0,1.6,0.2,3.2,0.7,4.7C40.4,17,41,18,41.7,18.8z M56.1,17.4c-3-1.9-7.9-1.3-9.9,1.1c0.5,0.2,0.9,0.4,1.4,0.7
	c1.4,0.7,2.8,0.8,4.1-0.2C53,18,54.4,17.5,56.1,17.4z M31.1,17.5c0.3,0.8,0.7,1.6,1.4,2.2c0.5,0.4,1.1,0.4,1.6,0.1
	c0.1-0.1,0.3-0.3,0.2-0.5C34.2,17.8,32.6,16.9,31.1,17.5z"/>
<path class="st1" d="M34.8,32.1c0.3,0.6,0.8,0.7,1.3,0.6c0.4-0.1,0.8-0.2,1.2-0.3c2.2-0.5,4.1,1.3,3.8,3.5c-0.4,2.5-2.6,3.1-4.6,2.5
	c-0.6-0.2-1.1-0.5-1.6-0.8c-1-0.7-1.3-1.8-1-3C34.1,33.9,34.4,33.1,34.8,32.1z"/>
<path class="st1" d="M43.4,6c0.1,0.5,0.1,1,0.2,1.6c0,0.3,0.1,0.6,0.2,0.9c0.2,0.7,0.6,0.8,1.1,0.4c0.3-0.2,0.6-0.5,0.8-0.7
	c1.2-1.2,2.6-2,4.3-2.4c1.5-0.4,2.8-1.1,4.2-1.6c0.1,0,0.2-0.1,0.5-0.2c-0.5,0.9-1,1.7-1.6,2.6c2.9,0,5.4,0.8,7.6,2.6
	C57.4,7.4,53.8,7.4,50.1,8c0.3-0.3,0.6-0.5,1-0.8C51,7.1,51,7,51,6.9c-0.5,0.1-1.1,0.2-1.6,0.4c-0.9,0.4-1.7,1-2.5,1.5
	c-0.6,0.4-1.1,0.8-1.7,1.1c-1.1,0.6-2,0.1-2.1-1.2C42.9,7.8,43.1,6.9,43.4,6z"/>
<path class="st1" d="M31.4,10.7c3.2,0,3.5-0.2,5.2-3c0.2,0.8-0.2,1.9-1.2,2.7C34.2,11.4,32.8,11.1,31.4,10.7z"/>
<text transform="matrix(1 0 0 1 77.9323 36.3854)"><tspan x="0" y="0" class="st0 st2 st3">R</tspan><tspan x="26.2" y="0" class="st0 st2 st4">ACKOONS</tspan></text>
</svg>
